# AST/ASF file generated using VICON BodyLanguage
# -----------------------------------------------
:version 1.10
:name VICON
:units
  mass 1.0
  length 0.45
  angle deg
:documentation
   .ast/.asf automatically generated from VICON data using
   VICON BodyBuilder and BodyLanguage model FoxedUp or BRILLIANT.MOD
:root
   order TX TY TZ RX RY RZ
   axis XYZ
   position 0 0 0  
   orientation 0 0 0 
:bonedata
  begin
     id 1 
     name lhipjoint
     direction 0.570549 -0.739093 0.358072 
     length 2.41801 
     axis 0 0 0  XYZ
  end
  begin
     id 2 
     name lfemur
     direction 0.34202 -0.939693 0  
     length 7.44434  
     axis 0 0 20  XYZ
    dof rx ry rz
    limits (-160.0 20.0)
           (-70.0 70.0)
           (-60.0 70.0)
  end
  begin
     id 3 
     name ltibia
     direction 0.34202 -0.939693 0   
     length 7.60047   
     axis 0 0 20   XYZ
    dof rx
    limits (-10.0 170.0)
  end
  begin
     id 4 
     name lfoot
     direction 0.0909041 -0.249757 0.964032   
     length 2.03437   
     axis -90 7.62852e-016 20   XYZ
    dof rx rz
    limits (-45.0 90.0)
           (-70.0 20.0)
  end
  begin
     id 5 
     name ltoes
     direction 1.53547e-011 -4.2174e-011 1   
     length 1.02054   
     axis -90 7.62852e-016 20   XYZ
    dof rx
    limits (-90.0 20.0)
  end
  begin
     id 6 
     name rhipjoint
     direction -0.558096 -0.746754 0.361784   
     length 2.3932  
     axis 0 0 0  XYZ 
  end
  begin
     id 7 
     name rfemur
     direction -0.34202 -0.939693 0   
     length 7.3886   
     axis 0 0 -20   XYZ
    dof rx ry rz
    limits (-160.0 20.0)
           (-70.0 70.0)
           (-70.0 60.0)
  end
  begin
     id 8 
     name rtibia
     direction -0.34202 -0.939693 0   
     length 7.4839   
     axis 0 0 -20   XYZ
    dof rx
    limits (-10.0 170.0)
 end
 begin
     id 9 
     name rfoot
     direction -0.114619 -0.314914 0.942174   
     length 2.25127  
     axis -90 -7.62852e-016 -20   XYZ
    dof rx rz
    limits (-45.0 90.0)
           (-20.0 70.0)
  end
  begin
     id 10 
     name rtoes
     direction -1.53518e-011 -4.21881e-011 1   
     length 1.11821   
     axis -90 -7.62852e-016 -20   XYZ
    dof rx
    limits (-90.0 20.0)
  end
  begin
     id 11 
     name lowerback
     direction -0.00902269 0.996426 -0.0839821   
     length 2.25052   
     axis 0 0 0   XYZ
    dof rx ry rz
    limits (-20.0 45.0)
           (-30.0 30.0)
           (-30.0 30.0)
  end
  begin
     id 12 
     name upperback
     direction 0.0370973 0.999169 -0.0168941   
     length 2.24876   
     axis 0 0 0   XYZ
    dof rx ry rz
    limits (-20.0 45.0)
           (-30.0 30.0)
           (-30.0 30.0)
  end
  begin
     id 13 
     name thorax
     direction 0.0402726 0.998931 0.0227027   
     length 2.26408   
     axis 0 0 0   XYZ
    dof rx ry rz
    limits (-20.0 45.0)
           (-30.0 30.0)
           (-30.0 30.0)
  end
  begin
     id 14 
     name lowerneck
     direction -0.0733697 0.98508 0.155675   
     length 1.58204   
     axis 0 0 0   XYZ
    dof rx ry rz
    limits (-20.0 45.0)
           (-30.0 30.0)
           (-30.0 30.0)
  end
  begin
     id 15 
     name upperneck
     direction 0.0426554 0.993501 -0.105526   
     length 1.61222   
     axis 0 0 0   XYZ
    dof rx ry rz
    limits (-20.0 45.0)
           (-30.0 30.0)
           (-30.0 30.0)
  end
  begin
     id 16
     name head
     direction 0.020792 0.998384 -0.0528868  
     length 1.61527  
     axis 0 0 0   XYZ
    dof rx ry rz
    limits (-20.0 45.0)
           (-30.0 30.0)
           (-30.0 30.0)
  end
  begin
     id 17 
     name lclavicle
     direction 0.967109 0.155462 -0.201325  
     length 3.59357  
     axis 0 0 0   XYZ
    dof ry rz
    limits (-20.0 10.0)
           (0.0 20.0)
  end
  begin
     id 18 
     name lhumerus
     direction 1 -4.48968e-011 2.38195e-027   
     length 5.38154   
     axis 180 -30 -90   XYZ
    dof rx ry rz
    limits (-60.0 90.0)
           (-90.0 90.0)
           (-90.0 90.0)
  end
  begin
     id 19
     name lradius
     direction 1 -4.48961e-011 4.85371e-027   
     length 3.33312   
     axis 180 -30 -90   XYZ
    dof rx
    limits (-10.0 170.0)
  end
  begin
     id 20
     name lwrist
     direction 1 -4.48961e-011 4.76515e-027   
     length 1.66656   
     axis -3.27502e-015 90 90   XYZ
    dof ry
    limits (-180.0 0.0)
 end
  begin
     id 21 
     name lhand
     direction 1 -4.48951e-011 9.53074e-027   
     length 0.710789   
     axis -6.08098e-015 90 90   XYZ
    dof rx rz
    limits (-90.0 90.0)
           (-45.0 45.0)
  end
  begin
     id 22 
     name lfingers
     direction 1 -4.48953e-011 1.90613e-026   
     length 0.573057   
     axis -1.21619e-014 90 90   XYZ
    dof rx
    limits (0.0 90.0)
  end
  begin
     id 23
     name lthumb
     direction 0.707107 -6.34973e-011 0.707107   
     length 0.822798   
     axis -90 45 -9.86923e-015   XYZ
    dof rx rz
    limits (-45.0 45.0)
           (-45.0 45.0)
  end
  begin
     id 24 
     name rclavicle
     direction -0.9585 0.265289 -0.104398   
     length 3.42039  
     axis 0 0 0   XYZ 
    dof ry rz
    limits (-10.0 20.0)
           (-20.0 0.0)
  end
  begin
     id 25 
     name rhumerus
     direction -1 -4.48977e-011 2.21478e-027  
     length 5.16954   
     axis 180 30 90   XYZ
    dof rx ry rz
    limits (-90.0 60.0)
           (-90.0 90.0)
           (-90.0 90.0)
  end
  begin
     id 26 
     name rradius
     direction -1 -4.48967e-011 5.63677e-027   
     length 3.38287   
     axis 180 30 90   XYZ
    dof rx
    limits (-10.0 170.0)
  end
  begin
     id 27 
     name rwrist
     direction -1 -4.48967e-011 4.76501e-027   
     length 1.69144   
     axis -3.27502e-015 -90 -90   XYZ
    dof ry
    limits (-180.0 0.0)
  end
  begin
     id 28
     name rhand
     direction -1 -4.48902e-011 9.53292e-027   
     length 0.817967   
     axis -6.08098e-015 -90 -90   XYZ
    dof rx rz
    limits (-90.0 90.0)
           (-45.0 45.0)
  end
  begin
     id 29
     name rfingers
     direction -1 -4.49012e-011 1.90561e-026   
     length 0.659466   
     axis -1.21619e-014 -90 -90   XYZ
    dof rx
    limits (0.0 90.0)
  end
  begin
     id 30
     name rthumb
     direction -0.707107 -6.34944e-011 0.707107   
     length 0.946865   
     axis -90 -45 9.86923e-015   XYZ
    dof rx rz
    limits (-45.0 45.0)
           (-45.0 45.0)
  end
:hierarchy
  begin
    root lhipjoint rhipjoint lowerback
    lhipjoint lfemur
    lfemur ltibia
    ltibia lfoot
    lfoot ltoes
    rhipjoint rfemur
    rfemur rtibia
    rtibia rfoot
    rfoot rtoes
    lowerback upperback
    upperback thorax
    thorax lowerneck lclavicle rclavicle
    lowerneck upperneck
    upperneck head
    lclavicle lhumerus
    lhumerus lradius
    lradius lwrist
    lwrist lhand lthumb
    lhand lfingers
    rclavicle rhumerus
    rhumerus rradius
    rradius rwrist
    rwrist rhand rthumb
    rhand rfingers
  end

#!OML:ASF F:\twosubjects\two\wednesday\Session 1\Justin1.ASF
:FULLY-SPECIFIED
:DEGREES
171
root -5.30328 17.6802 0.887916 -174.111 -3.76488 -175.74
lowerback 2.81844 2.56985 1.03645
upperback -2.18333 3.47778 1.10148
thorax -3.83365 1.70073 0.343629
lowerneck -5.79649 -9.99561 -13.6646
upperneck 15.8776 -14.4872 9.85822
head 7.53599 -7.29498 4.02069
rclavicle -3.16502e-014 -7.7526e-015
rhumerus 50.7844 6.60774 -22.1357
rradius 70.1248
rwrist -10.0594
rhand -18.7089 25.9181
rfingers 7.12502
rthumb 7.58609 -3.92588
lclavicle -3.16502e-014 -7.7526e-015
lhumerus -43.6973 26.2543 63.0455
lradius 22.8961
lwrist -12.9371
lhand -3.184 38.3215
lfingers 7.12502
lthumb 22.5374 67.0262
rfemur -1.15366 -2.32055 32.5587
rtibia 17.3917
rfoot -12.3197 6.81909
rtoes 23.8921
lfemur -29.3481 -3.68677 -8.26253
ltibia 44.3329
lfoot -14.2722 -0.702247
ltoes -14.8184
172
root -5.3358 17.67 0.759872 -174.172 -2.75119 -175.381
lowerback 2.46554 2.78041 1.6941
upperback -1.85402 3.77308 0.98936
thorax -3.24422 1.83758 -0.125148
lowerneck -6.08634 -10.0774 -13.6914
upperneck 15.7824 -14.5908 10.1641
head 7.59499 -7.30829 4.0966
rclavicle -1.19271e-015 -1.64991e-014
rhumerus 51.0757 8.63437 -22.6698
rradius 69.6255
rwrist -10.4319
rhand -18.0661 25.292
rfingers 7.12502
rthumb 8.20659 -4.52858
lclavicle -1.19271e-015 -1.64991e-014
lhumerus -42.5759 25.9652 64.0935
lradius 23.2368
lwrist -12.3177
lhand -3.46899 38.6038
lfingers 7.12502
lthumb 22.2638 67.3414
rfemur 0.0844043 -2.10162 32.649
rtibia 16.2167
rfoot -11.7666 7.45888
rtoes 23.9183
lfemur -29.6105 -3.79361 -7.85419
ltibia 42.951
lfoot -14.2487 -0.251595
ltoes -16.5317
173
root -5.3764 17.6669 0.615118 -174.419 -0.980695 -174.76
lowerback 2.29119 3.35097 2.63805
upperback -1.50576 4.5548 0.903661
thorax -2.69784 2.21562 -0.747451
lowerneck -6.4794 -10.2502 -13.561
upperneck 15.8338 -14.816 10.2937
head 7.71025 -7.38015 4.06774
rclavicle 5.36719e-015 1.03368e-014
rhumerus 50.9993 10.6344 -23.7342
rradius 69.0672
rwrist -10.5105
rhand -17.4715 24.859
rfingers 7.12502
rthumb 8.7804 -4.93836
lclavicle 5.36719e-015 1.03368e-014
lhumerus -41.4995 24.8592 65.5117
lradius 23.8496
lwrist -11.2748
lhand -3.39108 39.0155
lfingers 7.12502
lthumb 22.3386 67.7441
rfemur 1.52954 -1.58473 32.8509
rtibia 15.1455
rfoot -11.1038 8.45155
rtoes 23.7223
lfemur -29.3295 -3.71201 -7.11759
ltibia 41.4959
lfoot -14.1048 0.115544
ltoes -12.927
174
root -5.38793 17.6607 0.526919 -174.012 -0.561821 -174.374
lowerback 2.36314 3.50375 3.02748
upperback -1.71199 4.77418 0.906176
thorax -2.91371 2.30893 -0.981117
lowerneck -6.5604 -10.3166 -13.5213
upperneck 15.8483 -14.9442 10.4635
head 7.75601 -7.42571 4.09516
rclavicle 2.8625e-014 1.35174e-014
rhumerus 50.7095 12.9087 -25.0838
rradius 68.4058
rwrist -10.548
rhand -16.5838 24.3649
rfingers 7.12502
rthumb 9.63688 -5.39469
lclavicle 2.8625e-014 1.35174e-014
lhumerus -40.8959 23.2707 67.0077
lradius 24.645
lwrist -9.92247
lhand -3.18743 38.9857
lfingers 7.12502
lthumb 22.5341 67.6907
rfemur 2.01244 -1.25937 33.2239
rtibia 14.0632
rfoot -10.5024 8.3813
rtoes 24.3139
lfemur -30.3718 -3.97899 -6.39648
ltibia 39.9215
lfoot -13.5442 -0.209989
ltoes -10.7771
175
root -5.4138 17.6577 0.410918 -173.913 0.00505075 -174.654
lowerback 2.37153 3.48683 2.7776
upperback -1.77705 4.82523 0.860299
thorax -3.00168 2.37373 -0.897948
lowerneck -6.47574 -10.1009 -13.7429
upperneck 15.8286 -14.6947 10.7646
head 7.74276 -7.30709 4.26598
rclavicle -9.97651e-014 -5.36719e-015
rhumerus 50.6788 15.4948 -26.2373
rradius 67.6193
rwrist -10.6788
rhand -16.1041 24.12
rfingers 7.12502
rthumb 10.0997 -5.61761
lclavicle -9.97651e-014 -5.36719e-015
lhumerus -40.4906 22.59 68.0779
lradius 25.1173
lwrist -9.25571
lhand -3.25439 38.9055
lfingers 7.12502
lthumb 22.4698 67.6183
rfemur 3.1494 -1.3897 32.6838
rtibia 12.6867
rfoot -10.1339 8.85372
rtoes 24.6936
lfemur -30.9511 -3.93013 -6.80609
ltibia 38.2876
lfoot -13.1332 0.32023
ltoes -18.3056
176
root -5.43554 17.6523 0.288544 -173.985 0.755652 -174.793
lowerback 2.37054 3.54613 2.58909
upperback -1.71323 4.89624 0.919456
thorax -2.9534 2.41452 -0.734058
lowerneck -6.40465 -9.95994 -13.8654
upperneck 15.7819 -14.4508 10.6223
head 7.68135 -7.20869 4.27515
rclavicle 2.96438e-014 1.8487e-014
rhumerus 50.8292 18.1053 -27.1407
rradius 66.666
rwrist -10.6033
rhand -16.0347 24.13
rfingers 7.12502
rthumb 10.1667 -5.60435
lclavicle 2.96438e-014 1.8487e-014
lhumerus -39.9896 22.4471 69.0106
lradius 25.4222
lwrist -9.14706
lhand -3.29588 39.0974
lfingers 7.12502
lthumb 22.43 67.815
rfemur 4.39709 -1.29982 32.3023
rtibia 11.4303
rfoot -9.87695 9.30489
rtoes 25.1924
lfemur -31.2557 -3.78058 -7.06777
ltibia 36.6567
lfoot -12.9738 0.983247
ltoes -22.8701
177
root -5.45343 17.6477 0.163713 -174.129 1.84563 -174.401
lowerback 2.53025 3.7793 2.81395
upperback -1.6557 5.23525 1.15622
thorax -2.97706 2.58462 -0.640165
lowerneck -6.32674 -9.95477 -14.0547
upperneck 15.7317 -14.3522 10.3218
head 7.63056 -7.19031 4.22273
rclavicle -3.19298e-014 -1.39149e-015
rhumerus 50.7983 20.7164 -28.4671
rradius 65.3399
rwrist -9.98369
rhand -15.9042 24.2573
rfingers 7.12502
rthumb 10.2926 -5.47081
lclavicle -3.19298e-014 -1.39149e-015
lhumerus -39.4977 22.3392 70.0031
lradius 25.7262
lwrist -9.18852
lhand -3.26514 38.9676
lfingers 7.12502
lthumb 22.4595 67.6817
rfemur 5.91501 -0.269125 32.5393
rtibia 9.80471
rfoot -9.19363 9.1479
rtoes 26.7335
lfemur -31.3431 -3.56294 -6.57987
ltibia 35.1068
lfoot -13.0869 1.39771
ltoes -21.781
178
root -5.45727 17.6464 0.0783667 -173.518 1.88941 -174.163
lowerback 2.31541 3.75706 2.98567
upperback -1.79758 5.21806 1.21203
thorax -2.99391 2.57566 -0.667109
lowerneck -6.56259 -9.96157 -14.4097
upperneck 15.7719 -14.3621 10.7229
head 7.74473 -7.17626 4.39462
rclavicle -1.66109e-014 -1.97791e-014
rhumerus 50.3701 22.9177 -30.4215
rradius 63.7791
rwrist -9.1285
rhand -16.6523 25.004
rfingers 7.12502
rthumb 9.57085 -4.75865
lclavicle -1.66109e-014 -1.97791e-014
lhumerus -38.5955 21.9802 71.0612
lradius 25.993
lwrist -9.20329
lhand -3.21259 38.5662
lfingers 7.12502
lthumb 22.5099 67.2741
rfemur 6.6987 -0.111122 32.8217
rtibia 7.60137
rfoot -8.43082 8.92378
rtoes 27.4639
lfemur -32.7443 -3.5217 -6.20066
ltibia 33.6869
lfoot -12.9075 1.05435
ltoes -19.9161
179
root -5.47387 17.6428 -0.0372057 -173.268 2.3959 -174.037
lowerback 1.79996 3.95573 3.18126
upperback -1.49958 5.45216 1.17479
thorax -2.36816 2.6995 -0.767131
lowerneck -6.7562 -10.1095 -14.7256
upperneck 15.3973 -14.5517 11.3629
head 7.75735 -7.22062 4.62054
rclavicle -3.24143e-014 1.19271e-015
rhumerus 49.8373 24.5775 -32.1831
rradius 62.3481
rwrist -8.71417
rhand -15.8754 23.9383
rfingers 7.12502
rthumb 10.3204 -5.78849
lclavicle -3.24143e-014 1.19271e-015
lhumerus -37.1962 21.3088 72.3733
lradius 26.2598
lwrist -9.20791
lhand -2.99201 38.382
lfingers 7.12502
lthumb 22.7216 67.0642
rfemur 8.50594 0.414753 32.8453
rtibia 4.40932
rfoot -7.37114 8.71122
rtoes 27.2539
lfemur -33.4477 -3.43949 -6.04255
ltibia 32.3903
lfoot -13.1387 1.26646
ltoes -20.1133
180
root -5.4884 17.6269 -0.148232 -173.041 2.95139 -173.687
lowerback 1.21102 4.18604 3.69651
upperback -1.11648 5.72571 1.09272
thorax -1.57664 2.84381 -1.07176
lowerneck -6.95567 -10.3177 -14.6284
upperneck 14.914 -14.7997 11.7218
head 7.69164 -7.2878 4.68237
rclavicle -2.82026e-015 -7.55382e-015
rhumerus 49.1239 25.9726 -34.3843
rradius 60.7144
rwrist -8.28399
rhand -15.4359 23.8863
rfingers 7.12502
rthumb 10.7443 -5.81893
lclavicle -2.82026e-015 -7.55382e-015
lhumerus -35.7055 20.1486 73.6307
lradius 26.7423
lwrist -8.9074
lhand -2.75155 38.1628
lfingers 7.12502
lthumb 22.9524 66.8164
rfemur 10.9366 0.994332 33.1909
rtibia -3.18055e-014
rfoot -5.54944 8.36507
rtoes 26.2434
lfemur -34.0951 -3.06351 -5.71982
ltibia 31.1208
lfoot -13.4535 1.66323
ltoes -23.3252
181
root -5.50068 17.6119 -0.25685 -172.834 3.48787 -173.251
lowerback 0.824887 4.36863 4.90745
upperback -0.791529 5.93195 0.511009
thorax -0.835181 2.94584 -2.27489
lowerneck -7.36896 -10.3969 -14.0053
upperneck 14.6188 -14.9991 12.2872
head 7.6935 -7.29623 4.72679
rclavicle -5.45167e-014 6.36111e-015
rhumerus 47.9296 27.0912 -38.0153
rradius 58.7831
rwrist -7.65315
rhand -15.3182 24.4189
rfingers 7.12502
rthumb 10.8579 -5.28037
lclavicle -5.45167e-014 6.36111e-015
lhumerus -34.1654 18.4444 74.111
lradius 27.3379
lwrist -8.34931
lhand -2.63988 37.8023
lfingers 7.12502
lthumb 23.0595 66.4426
rfemur 11.1631 1.56504 33.5857
rtibia 4.45278e-014
rfoot -5.75792 8.3438
rtoes 25.8581
lfemur -34.7267 -2.61558 -5.32114
ltibia 29.92
lfoot -13.8398 2.05484
ltoes -23.8948
182
root -5.51584 17.6131 -0.378752 -172.651 3.9671 -172.946
lowerback 1.64789 4.4841 4.21686
upperback -1.4556 6.19207 1.26574
thorax -2.11688 3.0632 -1.24373
lowerneck -6.99415 -10.4665 -14.919
upperneck 14.988 -15.0058 11.8569
head 7.78622 -7.39062 4.73861
rclavicle -1.25731e-014 -1.39149e-014
rhumerus 46.157 30.0339 -39.7077
rradius 57.3179
rwrist -7.74328
rhand -15.8018 24.0539
rfingers 7.12502
rthumb 10.3914 -5.66934
lclavicle -1.25731e-014 -1.39149e-014
lhumerus -34.9082 17.9912 75.4315
lradius 27.9395
lwrist -8.52276
lhand -2.63375 37.2727
lfingers 7.12502
lthumb 23.0654 65.9123
rfemur 11.4776 2.07213 33.7719
rtibia 3.18055e-015
rfoot -5.82057 8.3883
rtoes 25.8171
lfemur -35.2562 -2.55243 -4.99686
ltibia 28.776
lfoot -14.1435 2.82923
ltoes -22.7036
183
root -5.53404 17.6169 -0.499617 -172.31 4.29295 -172.868
lowerback 1.34652 4.62043 4.39265
upperback -1.38041 6.35461 1.19249
thorax -1.8356 3.14769 -1.38472
lowerneck -6.88945 -10.7366 -15.2091
upperneck 14.4804 -15.3217 12.1515
head 7.69684 -7.52799 4.84205
rclavicle 2.53202e-014 9.54166e-015
rhumerus 44.6816 31.475 -42.5851
rradius 55.3658
rwrist -7.60032
rhand -16.1484 23.9393
rfingers 7.12502
rthumb 10.057 -5.80042
lclavicle 2.53202e-014 9.54166e-015
lhumerus -33.9067 17.2834 76.3491
lradius 28.3396
lwrist -8.51549
lhand -2.83245 36.7577
lfingers 7.12502
lthumb 22.8748 65.421
rfemur 11.5946 2.44712 33.7278
rtibia -9.54166e-015
rfoot -5.92052 8.40898
rtoes 25.7345
lfemur -35.9664 -2.53028 -4.95405
ltibia 27.7508
lfoot -14.0994 3.51593
ltoes -22.1754
184
root -5.55523 17.6134 -0.622357 -172.027 4.71932 -173.095
lowerback 1.3298 4.82105 4.19078
upperback -1.50454 6.61302 1.04303
thorax -1.94472 3.27267 -1.43594
lowerneck -6.6162 -10.8968 -15.3571
upperneck 14.1061 -15.5747 12.4631
head 7.6029 -7.6449 4.94672
rclavicle -2.20278e-014 -1.76918e-014
rhumerus 42.5473 32.7651 -46.168
rradius 53.0179
rwrist -7.32107
rhand -16.0879 24.1861
rfingers 7.12502
rthumb 10.1153 -5.55076
lclavicle -2.20278e-014 -1.76918e-014
lhumerus -33.2848 16.3912 77.1698
lradius 28.8017
lwrist -8.57651
lhand -3.11713 36.3094
lfingers 7.12502
lthumb 22.6015 65.0063
rfemur 11.7412 2.87217 33.352
rtibia 0
rfoot -6.09646 8.39202
rtoes 25.5847
lfemur -36.5679 -2.40583 -5.31719
ltibia 26.9375
lfoot -14.2987 4.17521
ltoes -21.9257
185
root -5.57733 17.5997 -0.750519 -171.887 5.32333 -172.928
lowerback 1.42341 5.10526 4.35365
upperback -1.58093 7.00354 0.987433
thorax -2.02968 3.46208 -1.59994
lowerneck -6.65627 -10.923 -15.3872
upperneck 14.0753 -15.66 12.7486
head 7.63952 -7.67003 5.03082
rclavicle -1.83255e-014 -7.15625e-015
rhumerus 40.0105 33.6842 -50.016
rradius 50.6926
rwrist -7.1041
rhand -16.4978 24.1517
rfingers 7.12502
rthumb 9.71988 -5.60406
lclavicle -1.83255e-014 -7.15625e-015
lhumerus -32.7815 15.4309 77.8838
lradius 29.3686
lwrist -8.88781
lhand -2.8569 35.853
lfingers 7.12502
lthumb 22.8513 64.5192
rfemur 12.1194 3.47718 33.3673
rtibia 1.27222e-014
rfoot -6.1262 8.40042
rtoes 25.6358
lfemur -36.9073 -2.27192 -5.22814
ltibia 26.3057
lfoot -14.7909 5.32803
ltoes -21.5699
